# xmcd
#
# Track frame offsets:
#	150
#	17257
#	35935
#	55322
#	70137
#	86970
#	102875
#	119945
#	140025
#	157130
#	175817
#	195215
#	210002
#	226842
#	242725
#	259807
#	291270
#
# Disc length: 3896 seconds
#
# Revision: 1
# Processed by: cddbd v1.5.2PL0 Copyright (c) Steve Scherf et al.
# Submitted via: audiograbber 1.83.01
#
DISCID=f60f3611
DTITLE=Sound Choice - SC3303
DYEAR=1900
DGENRE=KARAOKE
TTITLE0=George Strait - Living and Living Well
TTITLE1=Mindy McCready - Maybe, Maybe Not
TTITLE2=Clint Black - Money Or Love
TTITLE3=Jaime O'Neil - Frantic
TTITLE4=Sawyer Brown - Circles
TTITLE5=Mark Chestnutt - She Was
TTITLE6=Shannon Brown - Untangle My Heart
TTITLE7=Shannon Lawson - Goodbye On A Bad Day
TTITLE8=George Strait - Living and Living Well (Vocal Version)
TTITLE9=Mindy McCready - Maybe, Maybe Not (Vocal Version)
TTITLE10=Clint Black - Money Or Love (Vocal Version)
TTITLE11=Jamie O'Neal - Frantic (Vocal Version)
TTITLE12=Sawyer Brown - Circles (Vocal Version)
TTITLE13=Mark Chesnutt - She Was (Vocal Version)
TTITLE14=Shannon Brown - Untangle My Heart (Vocal Version)
TTITLE15=Shannon Lawson - Goodbye On A Bad Day (Vocal Version)
TTITLE16=Data Track - Data Track
EXTD=
EXTT0=
EXTT1=
EXTT2=
EXTT3=
EXTT4=
EXTT5=
EXTT6=
EXTT7=
EXTT8=
EXTT9=
EXTT10=
EXTT11=
EXTT12=
EXTT13=
EXTT14=
EXTT15=
EXTT16=
PLAYORDER=
